<svg width="55" height="56" viewBox="0 0 55 56" fill="none" xmlns="http://www.w3.org/2000/svg">
<path d="M40.9695 13.7217V33.5577H13.7864V13.7217" stroke="#262629" stroke-width="2" stroke-miterlimit="10" stroke-linecap="round"/>
<path d="M27.3832 0.777649L9.79181 17.5681" stroke="#262629" stroke-width="2" stroke-miterlimit="10" stroke-linecap="round"/>
<path d="M27.3832 0.777649L44.9746 17.5681" stroke="#262629" stroke-width="2" stroke-miterlimit="10" stroke-linecap="round"/>
<path d="M23.8823 23.454L23.8822 23.4539L23.8822 23.4539L23.8031 23.3705L23.7314 23.4605L23.0054 24.3738L22.9532 24.4395L23.0088 24.5023L23.0837 24.436C23.0088 24.5023 23.0088 24.5023 23.0089 24.5024L23.009 24.5025L23.0092 24.5028L23.0101 24.5038L23.0132 24.5072L23.0246 24.5196C23.0346 24.5302 23.0492 24.5455 23.0684 24.5649C23.1068 24.6036 23.1638 24.6586 23.2388 24.7249C23.3888 24.8574 23.6115 25.0352 23.9039 25.2183C24.4726 25.5744 25.3058 25.9512 26.381 26.0529V27.5731V27.6731H26.481H27.4536H27.5536V27.5731V26.0512C29.543 25.8219 30.7454 24.4104 30.7454 22.7008C30.7454 21.6862 30.3493 20.9636 29.7576 20.4113C29.1704 19.8632 28.3913 19.4835 27.6265 19.1453C27.4934 19.0865 27.3609 19.0289 27.2299 18.972C26.6011 18.699 26.0057 18.4404 25.5391 18.1214C24.9803 17.7394 24.6266 17.2841 24.6266 16.6323C24.6266 15.6263 25.5555 14.6363 27.0929 14.6363C27.8609 14.6363 28.5119 14.8895 28.9726 15.1444C29.2026 15.2717 29.3842 15.399 29.508 15.4941C29.5699 15.5416 29.6172 15.5811 29.6488 15.6084C29.6646 15.622 29.6764 15.6326 29.6842 15.6397L29.6928 15.6476L29.6947 15.6495L29.6951 15.6498L29.6951 15.6498L29.6952 15.6499L29.6952 15.6499L29.7865 15.737L29.8504 15.628L30.4395 14.6235L30.4779 14.5579L30.425 14.5033L30.3532 14.5729C30.425 14.5033 30.425 14.5032 30.4249 14.5032L30.4248 14.5031L30.4246 14.5028L30.4238 14.502L30.421 14.4993L30.4111 14.4894C30.4024 14.481 30.3898 14.4689 30.3732 14.4537C30.3401 14.4233 30.2912 14.3802 30.2268 14.3285C30.098 14.225 29.9071 14.0867 29.657 13.9453C29.1731 13.6718 28.4668 13.3864 27.5582 13.3193V11.8011V11.7011H27.4582H26.4856H26.3856V11.8011V13.3622C24.4656 13.6401 23.1937 15.0461 23.1937 16.6734C23.1937 17.6344 23.593 18.3185 24.1862 18.8457C24.7747 19.3688 25.5556 19.739 26.3216 20.0798C26.4082 20.1183 26.4945 20.1565 26.5803 20.1944C27.2608 20.4949 27.9118 20.7824 28.4131 21.1465C28.9727 21.5528 29.3308 22.0438 29.3308 22.7419C29.3308 23.3691 29.0706 23.8696 28.6525 24.2151C28.2327 24.5621 27.649 24.7561 27.0015 24.7561C26.0614 24.7561 25.2811 24.4308 24.7344 24.1036C24.4612 23.9402 24.2472 23.7768 24.1018 23.6546C24.0292 23.5935 23.9737 23.5428 23.9367 23.5076C23.9182 23.49 23.9043 23.4763 23.8952 23.4672L23.8851 23.4569L23.8828 23.4545L23.8823 23.454L23.8823 23.454Z" fill="#EA1777" stroke="#EA1777" stroke-width="0.2"/>
</svg>
