<svg width="49" height="50" viewBox="0 0 49 50" fill="none" xmlns="http://www.w3.org/2000/svg">
<path d="M9.17841 39.9987L9.18376 40.0078L9.18931 40.0169C10.4793 42.1182 11.9624 44.0099 13.8663 45.3745C15.7903 46.7536 18.0967 47.5602 20.9615 47.5602C27.2948 47.5602 32.4745 41.9878 32.4745 35.9534V31.5862H32.5026V30.5862V27.4848C32.5026 25.808 31.0807 24.3606 29.3972 24.3606C28.38 24.3606 27.4584 24.8889 26.8882 25.677V24.6526C26.8882 22.9715 25.448 21.5283 23.7828 21.5283C22.7596 21.5283 21.8331 22.0629 21.2637 22.8587C21.0702 21.348 19.738 20.1122 18.1824 20.1122C17.1653 20.1122 16.2437 20.6405 15.6734 21.4286V13.3376C15.6734 11.6608 14.2515 10.2134 12.568 10.2134C10.8845 10.2134 9.46262 11.6608 9.46262 13.3376V26.8804C8.44222 25.8977 7.37829 24.9682 6.37205 24.2713C5.5819 23.724 4.7527 23.2666 3.95728 23.0758C3.13541 22.8787 2.20127 22.9429 1.48518 23.6654C0.707593 24.4499 0.770311 25.4825 1.04722 26.374C1.32422 27.2657 1.90187 28.3262 2.63765 29.5357C3.19797 30.4568 3.85516 31.4746 4.59754 32.6244C5.88765 34.6224 7.43504 37.0189 9.17841 39.9987Z" stroke="#262629" stroke-width="2" stroke-miterlimit="10"/>
<path d="M22.7972 12.5361C22.7972 7.17024 18.4473 2.82031 13.0814 2.82031C7.71546 2.82031 3.36554 7.17024 3.36554 12.5361" stroke="#EA1777" stroke-width="2" stroke-linecap="round"/>
</svg>
