<svg width="49" height="50" viewBox="0 0 49 50" fill="none" xmlns="http://www.w3.org/2000/svg">
<path d="M1.22634 31.1938V16.0892V5.4406C1.22634 3.65515 2.79077 2.19043 4.69777 2.19043H25.1153C27.0223 2.19043 28.5867 3.65515 28.5867 5.4406V16.0892V31.1938" stroke="#262629" stroke-width="2" stroke-miterlimit="10" stroke-linecap="round"/>
<path d="M28.589 30.9072V44.4746C28.589 46.26 27.0246 47.7247 25.1176 47.7247H4.68871C2.78171 47.7247 1.21729 46.26 1.21729 44.4746V30.9072" stroke="#262629" stroke-width="2" stroke-miterlimit="10" stroke-linecap="round"/>
<path d="M1.22861 7.38477H28.5889" stroke="#262629" stroke-miterlimit="10" stroke-linecap="round"/>
<path d="M1.22861 42.3467H28.5889" stroke="#262629" stroke-miterlimit="10" stroke-linecap="round"/>
<path d="M12.3165 5.00244H17.5008" stroke="#262629" stroke-miterlimit="10" stroke-linecap="round"/>
<path d="M19.3991 5.00268C19.3991 5.01001 19.3968 5.02269 19.3801 5.03836C19.3628 5.05456 19.3335 5.06932 19.2939 5.06932C19.2542 5.06932 19.2249 5.05456 19.2076 5.03836C19.1909 5.02269 19.1886 5.01001 19.1886 5.00268C19.1886 4.99535 19.1909 4.98266 19.2076 4.96699C19.2249 4.9508 19.2542 4.93604 19.2939 4.93604C19.3335 4.93604 19.3628 4.9508 19.3801 4.96699C19.3968 4.98266 19.3991 4.99535 19.3991 5.00268Z" fill="#EA1777" stroke="#262629"/>
</svg>
