<svg width="55" height="56" viewBox="0 0 55 56" fill="none" xmlns="http://www.w3.org/2000/svg">
<path d="M39.6734 24.6879L48.1131 16.2482C49.0523 15.309 50.5876 15.309 51.5224 16.2482C52.4616 17.1874 52.4616 18.7228 51.5224 19.6575L40.1475 31.0323" stroke="#262629" stroke-width="2" stroke-miterlimit="10" stroke-linecap="round" stroke-linejoin="round"/>
<path d="M39.6735 24.6879H26.3208C25.8286 24.6879 25.4267 24.286 25.4267 23.7938C25.4267 23.3016 25.8286 22.8997 26.3208 22.8997" stroke="#262629" stroke-width="2" stroke-miterlimit="10" stroke-linecap="round" stroke-linejoin="round"/>
<path d="M40.1476 31.0323H15.3569" stroke="#262629" stroke-width="2" stroke-miterlimit="10" stroke-linecap="round" stroke-linejoin="round"/>
<path d="M19.159 16.1759C18.6668 15.0109 18.3914 13.7239 18.3914 12.3783" stroke="#262629" stroke-width="2" stroke-miterlimit="10"/>
<path d="M18.3914 12.3783C18.3914 6.99117 22.758 2.62457 28.1451 2.62457C33.5322 2.62457 37.8988 6.99117 37.8988 12.3783C37.8988 13.724 37.6279 15.0064 37.1311 16.1759" stroke="#262629" stroke-width="2" stroke-miterlimit="10"/>
<path d="M15.3659 31.0413L10.5297 35.8775C9.65365 36.7536 8.21317 36.7536 7.33714 35.8775L3.19633 31.7367C2.3203 30.8607 2.3203 29.4202 3.19633 28.5442L9.48658 22.2539L12.932 19.0162C13.361 18.5421 13.9751 18.2441 14.657 18.2441H33.9206C35.203 18.2441 36.2506 19.2917 36.2506 20.5741C36.2506 21.8566 35.203 22.9042 33.9206 22.9042H26.3208" stroke="#262629" stroke-width="2" stroke-miterlimit="10" stroke-linecap="round" stroke-linejoin="round"/>
<path d="M28.0502 15.4623C28.7231 15.4623 29.3327 15.1146 29.3327 14.3921C29.3327 12.8975 25.1241 13.0465 25.1241 10.3732C25.1241 9.09079 26.0814 8.09735 27.4632 7.87157V6.70203H28.5334V7.84899C29.9784 7.97091 30.7235 8.75663 30.7235 8.75663L30.0281 10.0616C30.0281 10.0616 29.1836 9.28948 28.0728 9.28948C27.3277 9.28948 26.7452 9.72749 26.7452 10.3461C26.7452 11.8273 30.9357 11.5653 30.9357 14.356C30.9357 15.0198 30.6919 15.6339 30.2403 16.0945H25.3905C25.1196 15.8958 24.9751 15.7378 24.9751 15.7378L25.8466 14.5276C25.8466 14.5276 26.8039 15.4623 28.0502 15.4623Z" fill="#EA1777"/>
</svg>
