<?xml version="1.0" encoding="utf-8"?>
<!-- Generator: Adobe Illustrator 16.0.0, SVG Export Plug-In . SVG Version: 6.00 Build 0)  -->
<!DOCTYPE svg PUBLIC "-//W3C//DTD SVG 1.1//EN" "http://www.w3.org/Graphics/SVG/1.1/DTD/svg11.dtd">
<svg version="1.1" id="Layer_1" xmlns="http://www.w3.org/2000/svg" xmlns:xlink="http://www.w3.org/1999/xlink" x="0px" y="0px"
	 width="451px" height="71px" viewBox="0 0 451 71" enable-background="new 0 0 451 71" xml:space="preserve">
<g>
	<g>
		<path fill="#F04B2D" d="M39.744,5.856h5.452c2.415,0,3.732,1.318,3.732,3.732v40.104c0,2.415-1.317,3.732-3.732,3.732h-5.452
			c-2.415,0-3.732-1.317-3.732-3.732V34.653h-18.88v15.039c0,2.415-1.317,3.732-3.732,3.732H7.91c-2.415,0-3.732-1.317-3.732-3.732
			V9.589c0-2.414,1.317-3.732,3.732-3.732h5.489c2.415,0,3.732,1.318,3.732,3.732v13.904h18.88V9.589
			C36.012,7.175,37.329,5.856,39.744,5.856z"/>
		<path fill="#F04B2D" d="M54.405,42.776V16.505c0-8.05,3.878-10.648,11.599-10.648h20.893c2.415,0,3.732,1.318,3.732,3.732v2.744
			c0,2.416-1.317,3.732-3.732,3.732H70.358c-2.561,0-3,0.879-3,2.525v5.928h16.1c2.415,0,3.732,1.316,3.732,3.732v2.414
			c0,2.416-1.317,3.732-3.732,3.732h-16.1v6.294c0,1.646,0.439,2.524,3,2.524h17.783c2.415,0,3.732,1.317,3.732,3.732v2.744
			c0,2.415-1.317,3.732-3.732,3.732H66.004C58.284,53.425,54.405,50.827,54.405,42.776z"/>
		<path fill="#F04B2D" d="M95.709,42.776V9.589c0-2.414,1.317-3.732,3.732-3.732h5.489c2.415,0,3.732,1.318,3.732,3.732V39.63
			c0,1.5,0.439,2.488,3,2.488h14.709c2.415,0,3.732,1.317,3.732,3.732v3.842c0,2.415-1.317,3.732-3.732,3.732h-19.063
			C99.587,53.425,95.709,50.827,95.709,42.776z"/>
		<path fill="#F04B2D" d="M133.583,42.776V9.589c0-2.414,1.317-3.732,3.732-3.732h5.489c2.415,0,3.732,1.318,3.732,3.732V39.63
			c0,1.5,0.439,2.488,3,2.488h14.709c2.416,0,3.732,1.317,3.732,3.732v3.842c0,2.415-1.316,3.732-3.732,3.732h-19.063
			C137.461,53.425,133.583,50.827,133.583,42.776z"/>
		<path fill="#F04B2D" d="M168.977,29.642c0-15.808,8.965-24.443,23.125-24.443c14.124,0,23.089,8.636,23.089,24.443
			c0,15.807-8.965,24.441-23.089,24.441C177.942,54.083,168.977,45.448,168.977,29.642z M201.067,29.642
			c0-10.941-3.477-13.869-8.965-13.869s-8.965,2.928-8.965,13.869c0,10.939,3.477,13.867,8.965,13.867
			S201.067,40.581,201.067,29.642z"/>
	</g>
	<g>
		<path fill="#71757C" d="M221.889,44.021V9.077c0-1.646,0.915-2.562,2.562-2.562h0.659c1.646,0,2.561,0.915,2.561,2.562v34.578
			c0,2.817,0.805,4.903,5.562,4.903h16.209c1.646,0,2.562,0.914,2.562,2.561v0.402c0,1.647-0.915,2.562-2.562,2.562H232.72
			C224.633,54.084,221.889,50.9,221.889,44.021z"/>
		<path fill="#71757C" d="M277.101,38.423l-17.197,1.829c1.208,6.33,5.524,9.185,11.782,9.185c2.488,0,5.379-0.438,8.488-1.317
			c1.83-0.512,2.928,0.109,2.928,1.72v0.439c0,1.5-0.658,2.451-2.122,2.891c-3.513,1.024-6.88,1.573-9.952,1.573
			c-10.319,0-17.125-6.257-17.125-18.441c0-11.782,5.891-18.479,16.904-18.479c9.404,0,15.002,4.939,15.002,12.88
			C285.809,35.496,283.724,37.728,277.101,38.423z M275.93,33.3c3.477-0.366,4.208-1.171,4.208-3.073
			c0-4.281-3.11-7.135-9.331-7.135c-6.988,0-10.83,3.769-11.196,11.928L275.93,33.3z"/>
		<path fill="#71757C" d="M322.908,34.727v16.795c0,1.647-0.915,2.562-2.562,2.562h-0.585c-1.647,0-2.562-0.915-2.562-2.562V34.727
			c0-8.964-3.293-11.599-10.721-11.599s-10.721,2.634-10.721,11.599v16.795c0,1.647-0.915,2.562-2.562,2.562h-0.549
			c-1.646,0-2.562-0.915-2.562-2.562V34.727c0-12.916,6.001-16.904,16.393-16.904C316.906,17.822,322.908,21.811,322.908,34.727z"/>
		<path fill="#71757C" d="M356.713,2.856h0.549c1.646,0,2.562,0.915,2.562,2.562V44.24c0,6.953-3.184,10.502-13.355,10.502
			c-12.039,0-18.918-4.939-18.918-18.479c0-13.538,6.879-18.441,18.918-18.441c2.342,0,4.902,0.183,7.684,0.512V5.418
			C354.152,3.771,355.066,2.856,356.713,2.856z M354.152,43.509V23.86c-3-0.476-5.709-0.732-8.051-0.732
			c-8.672,0-12.843,3.293-12.843,13.136c0,9.697,4.171,13.173,12.843,13.173C353.273,49.437,354.152,47.059,354.152,43.509z"/>
		<path fill="#71757C" d="M365.674,8.492c0-2.305,1.207-3.769,3.586-3.769s3.513,1.464,3.513,3.769c0,2.342-1.134,3.732-3.513,3.732
			S365.674,10.833,365.674,8.492z M366.332,51.521V21.042c0-1.646,0.915-2.561,2.562-2.561h0.659c1.646,0,2.561,0.915,2.561,2.561
			v30.479c0,1.647-0.914,2.562-2.561,2.562h-0.659C367.247,54.084,366.332,53.169,366.332,51.521z"/>
		<path fill="#71757C" d="M411.446,34.727v16.795c0,1.647-0.915,2.562-2.562,2.562H408.3c-1.647,0-2.562-0.915-2.562-2.562V34.727
			c0-8.964-3.293-11.599-10.721-11.599s-10.721,2.634-10.721,11.599v16.795c0,1.647-0.916,2.562-2.562,2.562h-0.549
			c-1.646,0-2.561-0.915-2.561-2.562V34.727c0-12.916,6-16.904,16.393-16.904C405.445,17.822,411.446,21.811,411.446,34.727z"/>
		<path fill="#71757C" d="M448.398,28.324V56.06c0,9.038-6.806,13.319-15.624,13.319c-2.927,0-6.11-0.477-9.294-1.428
			c-1.463-0.439-2.122-1.391-2.122-2.891v-0.146c0-1.829,1.098-2.635,2.891-2.158c2.927,0.731,5.635,1.207,8.306,1.207
			c5.965,0,10.137-2.415,10.137-7.903V54.23c-2.745,0.328-5.343,0.512-7.685,0.512c-12.002,0-18.881-4.903-18.881-18.441
			c0-13.539,6.879-18.479,18.881-18.479C445.18,17.822,448.398,21.372,448.398,28.324z M442.691,48.705V29.056
			c0-3.549-0.842-5.928-8.051-5.928c-8.672,0-12.844,3.476-12.844,13.173c0,9.732,4.172,13.136,12.844,13.136
			C436.982,49.437,439.69,49.18,442.691,48.705z"/>
	</g>
</g>
</svg>
