<svg width="55" height="56" viewBox="0 0 55 56" fill="none" xmlns="http://www.w3.org/2000/svg">
<path d="M30.4838 7.09293C30.5809 6.52684 30.775 5.96614 31.0661 5.4324C32.4948 2.81762 35.7673 1.85796 38.3821 3.28666C40.9969 4.71536 41.9565 7.98789 40.5278 10.6027C40.2367 11.1364 39.8701 11.6001 39.4442 11.9882" stroke="#262629" stroke-width="2" stroke-miterlimit="10" stroke-linecap="round"/>
<path d="M30.4892 7.09833C30.4892 7.09833 30.1226 9.22251 29.9555 13.8429C29.7883 18.4632 25.7988 19.7625 20.2026 16.7057" stroke="#262629" stroke-width="2" stroke-miterlimit="10" stroke-linecap="round"/>
<path d="M39.4442 11.9883C39.4442 11.9883 37.8538 13.4439 34.0583 16.0803C30.2628 18.7166 31.3249 22.7763 36.9211 25.8332" stroke="#262629" stroke-width="2" stroke-miterlimit="10" stroke-linecap="round"/>
<path d="M36.5652 31.6072L15.5391 20.1237C15.1401 19.9081 14.9946 19.4013 15.2102 19.0023L16.9301 15.8592C17.1457 15.4602 17.6525 15.3147 18.0515 15.5303L39.0776 27.0138C39.4765 27.2295 39.6221 27.7363 39.4065 28.1352L37.6866 31.2784C37.4656 31.6773 36.9642 31.8229 36.5652 31.6072Z" stroke="#262629" stroke-width="2" stroke-miterlimit="10" stroke-linecap="round"/>
<path d="M13.5767 21.9891L36.053 34.2652" stroke="#262629" stroke-width="2" stroke-miterlimit="10" stroke-linecap="round"/>
<path d="M19.4101 38.9665C19.4101 38.9665 20.5315 40.0555 21.9871 40.0555C22.7743 40.0555 23.4859 39.6512 23.4859 38.8047C23.4859 37.0579 18.569 37.2305 18.569 34.1035C18.569 32.6047 19.6904 31.4402 21.3024 31.1814V29.812H22.5532V31.1491C24.2407 31.2946 25.1141 32.2111 25.1141 32.2111L24.3 33.7369C24.3 33.7369 23.308 32.8365 22.0141 32.8365C21.1407 32.8365 20.456 33.3433 20.456 34.0712C20.456 35.8018 25.3621 35.4999 25.3621 38.7562C25.3621 40.2388 24.3269 41.5058 22.5532 41.7376V43.0746H21.3024V41.7376C19.4262 41.5166 18.3911 40.3682 18.3911 40.3682L19.4101 38.9665Z" fill="#EA1777"/>
</svg>
