<svg width="55" height="56" viewBox="0 0 55 56" fill="none" xmlns="http://www.w3.org/2000/svg">
<path d="M40.9729 15.5698V35.4009H13.7935V15.5698" stroke="#262629" stroke-width="2" stroke-miterlimit="10" stroke-linecap="round"/>
<path d="M27.3832 2.62457L9.7937 19.4155" stroke="#262629" stroke-width="2" stroke-miterlimit="10" stroke-linecap="round"/>
<path d="M27.3832 2.62457L44.9727 19.4155" stroke="#262629" stroke-width="2" stroke-miterlimit="10" stroke-linecap="round"/>
<path d="M13.7935 23.3103H40.9729" stroke="#262629" stroke-width="2" stroke-miterlimit="10" stroke-linecap="round"/>
<path d="M13.7935 24.298L24.7143 35.2257" stroke="#262629" stroke-width="2" stroke-miterlimit="10" stroke-linecap="round"/>
<path d="M13.7935 29.2435L19.7758 35.2258" stroke="#262629" stroke-width="2" stroke-miterlimit="10" stroke-linecap="round"/>
<path d="M17.9475 23.3103L29.884 35.2468" stroke="#262629" stroke-width="2" stroke-miterlimit="10" stroke-linecap="round"/>
<path d="M22.893 23.3103L34.8295 35.2468" stroke="#262629" stroke-width="2" stroke-miterlimit="10" stroke-linecap="round"/>
<path d="M27.8315 23.3103L39.775 35.2468" stroke="#262629" stroke-width="2" stroke-miterlimit="10" stroke-linecap="round"/>
<path d="M32.777 23.3103L40.9729 31.5061" stroke="#262629" stroke-width="2" stroke-miterlimit="10" stroke-linecap="round"/>
<path d="M25.3027 16.7887C25.3027 16.7887 26.2484 17.7063 27.4743 17.7063C28.1397 17.7063 28.7352 17.3631 28.7352 16.6486C28.7352 15.1775 24.5882 15.3246 24.5882 12.6907C24.5882 11.4298 25.5339 10.4491 26.8928 10.225V9.07617H27.9506V10.204C29.3726 10.3301 30.1081 11.1006 30.1081 11.1006L29.4216 12.3895C29.4216 12.3895 28.588 11.626 27.4953 11.626C26.7597 11.626 26.1853 12.0533 26.1853 12.6697C26.1853 14.1268 30.3183 13.8746 30.3183 16.6205C30.3183 17.8744 29.4497 18.9392 27.9506 19.1353V20.2631H26.8928V19.1353C25.3097 18.9532 24.4411 17.9795 24.4411 17.9795L25.3027 16.7887Z" fill="#EA1777"/>
</svg>
