<svg width="55" height="56" viewBox="0 0 55 56" fill="none" xmlns="http://www.w3.org/2000/svg">
<rect x="9.95117" y="8.3707" width="34.8637" height="24.1939" rx="3" stroke="#262629" stroke-width="2"/>
<path d="M20.1302 8.37063V4.62457C20.1302 3.52 21.0257 2.62457 22.1302 2.62457H32.6353C33.7398 2.62457 34.6353 3.52 34.6353 4.62457V8.37063" stroke="#262629" stroke-width="2"/>
<path d="M23.7317 24.071L23.6827 24.1366L23.7374 24.1976L23.8118 24.1308L23.7375 24.1977L23.7376 24.1978L23.7378 24.1981L23.7386 24.1989L23.7413 24.2018L23.7511 24.2123C23.7596 24.2214 23.7721 24.2343 23.7885 24.2507C23.8213 24.2834 23.8698 24.3298 23.9337 24.3859C24.0613 24.4979 24.2506 24.6486 24.4988 24.8051C24.9794 25.1082 25.6819 25.4336 26.5861 25.5414V26.7873V26.8873H26.6861H27.7167H27.8167V26.7873V25.5397C29.5236 25.3005 30.5603 24.0729 30.5603 22.5921C30.5603 21.7455 30.2332 21.1341 29.7448 20.6657C29.2603 20.2011 28.6183 19.8782 27.9895 19.5992C27.838 19.532 27.6876 19.4674 27.5401 19.4041C27.0691 19.202 26.6282 19.0127 26.2758 18.7902C25.8163 18.5 25.5377 18.1717 25.5377 17.7146C25.5377 16.9732 26.2299 16.3194 27.2958 16.3194C27.9266 16.3194 28.4723 16.5334 28.8622 16.7496C29.0568 16.8575 29.2116 16.9654 29.3173 17.0461C29.3702 17.0864 29.4107 17.1198 29.4378 17.1429C29.4513 17.1545 29.4615 17.1634 29.4681 17.1694L29.4754 17.176L29.4771 17.1776L29.4774 17.1778L29.4774 17.1778L29.4774 17.1779L29.4774 17.1779L29.5714 17.2661L29.6335 17.153L30.2867 15.9627L30.3222 15.898L30.2709 15.845L30.199 15.9146C30.2709 15.845 30.2709 15.845 30.2708 15.845L30.2708 15.8449L30.2705 15.8446L30.2698 15.8439L30.2674 15.8415L30.2589 15.833C30.2515 15.8259 30.2408 15.8156 30.2267 15.8027C30.1986 15.7768 30.1571 15.7403 30.1024 15.6964C29.993 15.6086 29.8307 15.4912 29.6168 15.3702C29.2049 15.1374 28.6014 14.8917 27.8167 14.8207V13.5629V13.4629H27.7167H26.6861H26.5861V13.5629V14.8418C24.9803 15.1089 23.886 16.3035 23.886 17.7436C23.886 18.5521 24.2146 19.1391 24.7027 19.5937C25.1866 20.0446 25.8281 20.3659 26.456 20.6509C26.5778 20.7061 26.699 20.76 26.8184 20.8131C27.3213 21.0366 27.795 21.2472 28.1683 21.4971C28.6269 21.8042 28.9087 22.1543 28.9087 22.6356C28.9087 23.091 28.7198 23.4397 28.4204 23.6768C28.1186 23.9159 27.6992 24.0453 27.2377 24.0453C26.4996 24.0453 25.8641 23.778 25.4108 23.5078C25.1846 23.373 25.0049 23.2381 24.8822 23.1372C24.8208 23.0868 24.7737 23.045 24.7423 23.016C24.7265 23.0015 24.7147 22.9902 24.7069 22.9826L24.6983 22.9742L24.6963 22.9723L24.6959 22.9719L24.6959 22.9719L24.6959 22.9718L24.6959 22.9718L24.6142 22.8891L24.5446 22.9823L23.7317 24.071Z" fill="#EA1777" stroke="#EA1777" stroke-width="0.2"/>
</svg>
